<?xml version="1.0" standalone="no"?>
<!DOCTYPE svg PUBLIC "-//W3C//DTD SVG 20010904//EN"
 "http://www.w3.org/TR/2001/REC-SVG-20010904/DTD/svg10.dtd">
<svg version="1.0" xmlns="http://www.w3.org/2000/svg"
 width="512.000000pt" height="512.000000pt" viewBox="0 0 512.000000 512.000000"
 preserveAspectRatio="xMidYMid meet">

<g transform="translate(0.000000,512.000000) scale(0.100000,-0.100000)"
fill="#000000" stroke="none">
<path d="M2305 5089 c-1086 -118 -1989 -929 -2229 -2001 -51 -225 -60 -315
-60 -583 0 -207 4 -274 22 -390 62 -397 195 -741 412 -1067 294 -443 713 -782
1204 -973 131 -51 175 -55 225 -17 49 36 51 50 51 326 l0 258 -32 -5 c-18 -3
-83 -11 -145 -18 -311 -33 -570 86 -673 309 -96 206 -161 304 -250 370 -135
100 -164 140 -126 171 28 23 110 25 183 3 127 -39 209 -107 313 -263 103 -152
188 -220 315 -254 107 -27 271 -14 376 32 40 17 42 21 60 92 24 94 60 173 104
227 19 23 35 44 35 47 0 2 -27 7 -59 10 -137 15 -327 64 -455 118 -274 116
-475 336 -566 619 -79 248 -97 593 -41 815 26 102 116 283 179 360 l49 59 -20
61 c-14 43 -21 99 -24 201 -6 153 7 246 50 367 l22 62 50 3 c118 7 348 -80
550 -207 l100 -63 90 21 c206 48 278 55 550 55 272 0 345 -7 550 -55 l90 -21
90 57 c208 132 396 206 529 208 l81 2 21 -60 c58 -158 70 -415 27 -565 l-19
-65 54 -70 c66 -85 144 -243 173 -350 30 -112 38 -390 15 -558 -76 -544 -375
-856 -926 -966 -58 -11 -131 -24 -162 -27 l-57 -7 35 -41 c41 -48 85 -136 110
-221 15 -52 18 -124 23 -527 l6 -468 31 -31 c51 -51 97 -50 235 4 880 344
1489 1123 1626 2082 23 160 23 541 0 700 -46 310 -124 561 -256 825 -340 679
-955 1172 -1684 1349 -67 17 -169 37 -227 46 -127 20 -497 28 -625 14z"/>
<path d="M910 1397 c0 -18 21 -37 41 -37 24 0 33 18 19 35 -15 19 -60 20 -60
2z"/>
<path d="M1015 1310 c-10 -17 23 -60 46 -60 27 0 35 27 14 50 -20 22 -50 26
-60 10z"/>
<path d="M1116 1175 c-8 -23 10 -62 33 -70 28 -8 41 1 41 29 0 42 -60 76 -74
41z"/>
<path d="M1234 1025 c-9 -23 28 -69 58 -73 35 -4 45 24 20 58 -23 30 -69 39
-78 15z"/>
<path d="M1411 916 c-26 -31 31 -79 74 -62 27 10 30 38 6 58 -28 22 -64 23
-80 4z"/>
<path d="M1819 899 c-20 -20 -20 -22 -3 -40 9 -10 24 -19 33 -19 25 0 61 29
61 49 0 36 -59 42 -91 10z"/>
<path d="M1629 881 c-20 -16 -22 -23 -13 -38 20 -33 104 -24 104 12 0 15 -37
45 -56 45 -7 0 -22 -9 -35 -19z"/>
</g>
</svg>
