<?xml version="1.0" standalone="no"?>
<!DOCTYPE svg PUBLIC "-//W3C//DTD SVG 20010904//EN"
 "http://www.w3.org/TR/2001/REC-SVG-20010904/DTD/svg10.dtd">
<svg version="1.0" xmlns="http://www.w3.org/2000/svg"
 width="512.000000pt" height="512.000000pt" viewBox="0 0 512.000000 512.000000"
 preserveAspectRatio="xMidYMid meet">

<g transform="translate(0.000000,512.000000) scale(0.100000,-0.100000)"
fill="#000000" stroke="none">
<path d="M2494 4624 c-65 -32 -71 -46 -180 -423 -69 -242 -120 -397 -153 -471
-149 -335 -436 -622 -771 -771 -74 -33 -228 -83 -473 -154 -354 -102 -363
-105 -394 -141 -56 -64 -56 -144 0 -208 31 -37 40 -40 392 -141 198 -57 398
-119 445 -139 350 -149 647 -440 801 -786 33 -74 83 -228 154 -473 102 -354
105 -363 141 -394 67 -59 155 -56 214 6 32 34 42 61 129 366 130 457 160 532
293 731 97 146 256 305 402 402 195 131 269 160 718 288 328 94 344 100 379
135 65 65 65 151 1 217 -36 37 -47 41 -380 136 -430 122 -514 155 -682 264
-185 120 -323 255 -441 431 -129 192 -152 249 -284 704 -77 266 -109 365 -127
384 -47 51 -124 67 -184 37z m109 -862 c114 -352 365 -691 678 -915 120 -85
353 -203 491 -248 59 -19 107 -36 107 -39 0 -3 -44 -19 -98 -37 -177 -57 -354
-147 -515 -260 -104 -75 -334 -305 -409 -410 -118 -167 -217 -363 -269 -535
-13 -43 -25 -78 -28 -78 -3 0 -20 47 -38 105 -41 126 -139 329 -217 445 -121
180 -296 360 -470 486 -116 83 -353 202 -488 245 -59 19 -107 36 -107 39 0 3
46 20 103 38 386 123 740 395 971 746 76 116 168 306 208 433 18 57 35 103 38
103 3 -1 22 -53 43 -118z"/>
</g>
</svg>
